# xmcd
#
# Track frame offsets:
#	150
#	9946
#	34428
#	54609
#	80979
#	107932
#	133715
#	160830
#	179520
#	199466
#	241238
#	284723
#	310156
#
# Disc length: 4615 seconds
# Revision: 0
# Processed by: cddbd v1.5.2PL0 Copyright (c) Steve Scherf et al.
# Submitted via: dBpowerAMP V12.0
#
DISCID=c312050d
DTITLE=B.B. King - Live In Japan (2012 Japan SHM-CD Edition)
DYEAR=1971
DGENRE=Blues
TTITLE0=Every Day I Have The Blues
TTITLE1=How Blue Can You Get?
TTITLE2=Eyesight To The Blind
TTITLE3=Niji Baby
TTITLE4=You're Still My Woman
TTITLE5=Chains And Things
TTITLE6=Sweet Sixteen
TTITLE7=Hummingbird
TTITLE8=Darlin' You Know I Love You
TTITLE9=Japanese Boogie
TTITLE10=Jamming At Sankei Hall
TTITLE11=The Thrill Is Gone
TTITLE12=Hikari #88
EXTD=
EXTT0=
EXTT1=
EXTT2=
EXTT3=
EXTT4=
EXTT5=
EXTT6=
EXTT7=
EXTT8=
EXTT9=
EXTT10=
EXTT11=
EXTT12=
PLAYORDER=
